# File created by Blade
# Date/Time:  Thu Jan 15 17:55:17 2015
#---------------------------------------------------------
:version 1.10
:name HOM
:units
  mass 1.0
  length 1.000000
  angle deg
:documentation
     Acclaim Skeleton File
:root
   axis xyz
   order TX TY TZ RX RY RZ
   position 0.000000 0.000000 0.000000
   orientation 0 0 0
:bonedata
   begin
      id 1
      name Spine_dum
      direction 0.000000 1.000000 0.000000
      length 5.015652
      axis 0.0 0.0 0.0 xyz
   end
   begin
      id 2
      name LeftUpLeg_dum
      direction 1.000000 0.000000 0.000000
      length 4.275145
      axis 0.0 0.0 0.0 xyz
   end
   begin
      id 3
      name RightUpLeg_dum
      direction -1.000000 0.000000 0.000000
      length 4.275145
      axis 0.0 0.0 0.0 xyz
   end
   begin
      id 4
      name Spine
      direction 0.000000 1.000000 0.000000
      length 0.000000
      axis 0.0 0.0 0.0 xyz
      dof rx ry rz
   end
   begin
      id 5
      name Spine_dum1
      direction 0.000000 1.000000 0.000000
      length 15.980521
      axis 0.0 0.0 0.0 xyz
   end
   begin
      id 6
      name Spine_dum2
      direction 0.000000 1.000000 0.000000
      length 12.162712
      axis 0.0 0.0 0.0 xyz
   end
   begin
      id 7
      name Spine_dum3
      direction 0.000000 1.000000 0.000000
      length 12.162712
      axis 0.0 0.0 0.0 xyz
   end
   begin
      id 8
      name Head
      direction 0.000000 1.000000 0.000000
      length 4.527550
      axis 0.0 0.0 0.0 xyz
      dof rx ry rz
   end
   begin
      id 9
      name LeftShoulder
      direction 1.000000 0.000000 0.000000
      length 7.205867
      axis 0.0 0.0 -90.0 xyz
      dof rx ry rz
   end
   begin
      id 10
      name LeftArm
      direction 1.000000 0.000000 0.000000
      length 10.786708
      axis 0.0 0.0 -90.0 xyz
      dof rx ry rz
   end
   begin
      id 11
      name LeftForeArm
      direction 1.000000 0.000000 0.000000
      length 7.946034
      axis 0.0 0.0 -90.0 xyz
      dof rz ry rx
   end
   begin
      id 12
      name LeftHand
      direction 0.000000 0.000000 0.000000
      length 0.000000
      axis 0.0 0.0 -90.0 xyz
      dof rx ry rz
   end
   begin
      id 13
      name LeftHand_dum1
      direction 0.000000 0.000000 0.000000
      length 0.000000
      axis 0.0 0.0 -90.0 xyz
   end
   begin
      id 14
      name LeftHand_dum2
      direction 1.000000 0.000000 0.000000
      length 3.937000
      axis 0.0 0.0 -90.0 xyz
   end
   begin
      id 15
      name LeftHandThumb1
      direction 0.000000 0.000000 1.000000
      length 3.937000
      axis 0.0 0.0 -90.0 xyz
      dof rx ry rz
   end
   begin
      id 16
      name RightShoulder
      direction -1.000000 0.000000 0.000000
      length 7.205867
      axis 0.0 0.0 90.0 xyz
      dof rx ry rz
   end
   begin
      id 17
      name RightArm
      direction -1.000000 0.000000 0.000000
      length 10.786708
      axis 0.0 0.0 90.0 xyz
      dof rx ry rz
   end
   begin
      id 18
      name RightForeArm
      direction -1.000000 0.000000 0.000000
      length 7.946034
      axis 0.0 0.0 90.0 xyz
      dof rz ry rx
   end
   begin
      id 19
      name RightHand
      direction 0.000000 0.000000 0.000000
      length 0.000000
      axis 0.0 0.0 90.0 xyz
      dof rx ry rz
   end
   begin
      id 20
      name RightHand_dum1
      direction 0.000000 0.000000 0.000000
      length 0.000000
      axis 0.0 0.0 90.0 xyz
   end
   begin
      id 21
      name RightHand_dum2
      direction -1.000000 0.000000 0.000000
      length 3.937000
      axis 0.0 0.0 90.0 xyz
   end
   begin
      id 22
      name RightHandThumb1
      direction 0.000000 0.000000 1.000000
      length 3.937000
      axis 0.0 0.0 90.0 xyz
      dof rx ry rz
   end
   begin
      id 23
      name LeftUpLeg
      direction 0.000000 -1.000000 0.000000
      length 17.046659
      axis 0.0 0.0 0.0 xyz
      dof rx ry rz
   end
   begin
      id 24
      name LeftLeg
      direction 0.000000 -1.000000 0.000000
      length 17.458438
      axis 0.0 0.0 0.0 xyz
      dof rx ry rz
   end
   begin
      id 25
      name LeftFoot
      direction 0.000000 -0.258819 0.965926
      length 5.099406
      axis 15.0 0.0 0.0 xyz
      dof rx ry rz
   end
   begin
      id 26
      name LeftToeBase
      direction 0.000000 0.000000 1.000000
      length 2.952750
      axis 0.0 0.0 0.0 xyz
      dof rx ry rz
   end
   begin
      id 27
      name RightUpLeg
      direction 0.000000 -1.000000 0.000000
      length 17.046659
      axis 0.0 0.0 0.0 xyz
      dof rx ry rz
   end
   begin
      id 28
      name RightLeg
      direction 0.000000 -1.000000 0.000000
      length 17.458438
      axis 0.0 0.0 0.0 xyz
      dof rx ry rz
   end
   begin
      id 29
      name RightFoot
      direction 0.000000 -0.258819 0.965926
      length 5.099406
      axis 15.0 0.0 0.0 xyz
      dof rx ry rz
   end
   begin
      id 30
      name RightToeBase
      direction 0.000000 0.000000 1.000000
      length 2.952750
      axis 0.0 0.0 0.0 xyz
      dof rx ry rz
   end
:hierarchy
   begin
      root Spine_dum LeftUpLeg_dum RightUpLeg_dum
      Spine_dum Spine
      LeftUpLeg_dum LeftUpLeg
      RightUpLeg_dum RightUpLeg
      Spine Spine_dum1 Spine_dum2 Spine_dum3
      Spine_dum1 Head
      Spine_dum2 LeftShoulder
      Spine_dum3 RightShoulder
      LeftShoulder LeftArm
      LeftArm LeftForeArm
      LeftForeArm LeftHand
      LeftHand LeftHand_dum1 LeftHand_dum2
      LeftHand_dum1 LeftHandThumb1
      RightShoulder RightArm
      RightArm RightForeArm
      RightForeArm RightHand
      RightHand RightHand_dum1 RightHand_dum2
      RightHand_dum1 RightHandThumb1
      LeftUpLeg LeftLeg
      LeftLeg LeftFoot
      LeftFoot LeftToeBase
      RightUpLeg RightLeg
      RightLeg RightFoot
      RightFoot RightToeBase
   end

# File created by Blade
# Date/Time:  Thu Jan 15 17:55:09 2015
# Frame Rate: 120.000 fps
#------------------------------------------------------
:FULLY-SPECIFIED
:DEGREES
366
root 5.713212 27.064772 -14.624044 8.807938 0.711479 1.488939
Spine 11.966003 -12.441908 -7.869815
Head -21.599913 14.318941 16.469784
LeftShoulder -15.892053 -15.203229 28.778051
LeftArm 79.940219 -10.638569 -40.284166
LeftForeArm -0.000000 24.864105 2.341238
LeftHand 2.505931 -0.000000 5.585062
LeftHandThumb1 -26.253704 33.147579 0.000000
RightShoulder 17.333641 45.364943 -13.550128
RightArm 54.583166 8.724168 61.784583
RightForeArm 0.000000 -48.009060 13.087964
RightHand -5.797122 -0.000000 -5.130179
RightHandThumb1 -24.326973 -32.862282 -0.000000
LeftUpLeg -59.446968 14.453668 -7.159223
LeftLeg 91.624547 -0.000000 -0.000000
LeftFoot -41.468957 18.259543 -13.556850
LeftToeBase 13.875771 -0.000000 -0.000000
RightUpLeg -56.251823 -15.486182 6.450703
RightLeg 88.894039 -0.000000 -0.000000
RightFoot -50.892123 -23.545170 19.312060
RightToeBase 15.980825 -0.000000 -0.000000
367
root 5.690315 26.619745 -14.656012 8.788420 0.662911 1.430796
Spine 12.201103 -12.345615 -7.891421
Head -21.716424 14.305755 16.620607
LeftShoulder -15.787827 -15.061132 29.034877
LeftArm 80.199064 -11.240870 -40.209897
LeftForeArm -0.000000 24.666637 2.336957
LeftHand 2.481163 -0.000000 5.387290
LeftHandThumb1 -26.253704 33.147579 0.000000
RightShoulder 16.944931 45.625076 -13.978691
RightArm 54.830375 8.889261 61.628228
RightForeArm -0.000000 -47.885954 13.016108
RightHand -5.788251 -0.000000 -4.948787
RightHandThumb1 -24.326973 -32.862282 -0.000000
LeftUpLeg -60.799764 14.645192 -7.178571
LeftLeg 93.864276 -0.000000 -0.000000
LeftFoot -41.810868 18.112664 -13.714802
LeftToeBase 13.229151 -0.000000 -0.000000
RightUpLeg -57.715620 -15.389717 6.631276
RightLeg 91.443469 -0.000000 -0.000000
RightFoot -50.848167 -23.200827 19.507476
RightToeBase 15.295222 -0.000000 -0.000000
368
root 5.670687 26.170311 -14.685674 8.762445 0.594061 1.380984
Spine 12.429341 -12.244707 -7.912663
Head -21.811042 14.304399 16.752444
LeftShoulder -15.709280 -14.868504 29.220465
LeftArm 80.522145 -11.841570 -40.108854
LeftForeArm -0.000000 24.388390 2.319192
LeftHand 2.493926 -0.000000 5.198914
LeftHandThumb1 -26.253704 33.147579 0.000000
RightShoulder 16.527730 45.778672 -14.465760
RightArm 55.141607 9.072934 61.493774
RightForeArm -0.000000 -47.795428 12.994617
RightHand -5.793703 -0.000000 -4.728663
RightHandThumb1 -24.326973 -32.862282 -0.000000
LeftUpLeg -62.093406 14.773392 -7.158176
LeftLeg 96.054931 -0.000000 -0.000000
LeftFoot -42.240459 17.858131 -13.940278
LeftToeBase 12.738247 -0.000000 -0.000000
RightUpLeg -59.165662 -15.278035 6.795341
RightLeg 93.947540 -0.000000 -0.000000
RightFoot -50.762093 -22.916060 19.663970
RightToeBase 14.428681 -0.000000 -0.000000
369
root 5.651306 25.716153 -14.713760 8.731370 0.521172 1.334089
Spine 12.645222 -12.214276 -7.947536
Head -21.866410 14.396894 16.865906
LeftShoulder -15.679331 -14.714729 29.420502
LeftArm 80.787277 -12.369699 -39.973368
LeftForeArm 0.000000 24.155213 2.201901
LeftHand 2.630417 -0.000000 5.178789
LeftHandThumb1 -26.253704 33.147579 0.000000
RightShoulder 16.217538 45.800792 -14.872555
RightArm 55.506117 9.197480 61.166946
RightForeArm -0.000000 -47.546849 13.005321
RightHand -5.710817 0.000000 -4.636885
RightHandThumb1 -24.326973 -32.862282 -0.000000
LeftUpLeg -63.335088 14.834800 -7.084509
LeftLeg 98.196560 -0.000000 -0.000000
LeftFoot -42.696142 17.522752 -14.130307
LeftToeBase 12.324007 -0.000000 -0.000000
RightUpLeg -60.577788 -15.150605 6.945242
RightLeg 96.382597 -0.000000 -0.000000
RightFoot -50.673822 -22.742671 19.708520
RightToeBase 13.590332 -0.000000 -0.000000
370
root 5.631462 25.259803 -14.741367 8.683887 0.404201 1.296497
Spine 12.885023 -12.131185 -8.009408
Head -21.985666 14.461874 16.998861
LeftShoulder -15.695467 -14.625729 29.632266
LeftArm 81.030434 -12.836209 -39.840636
LeftForeArm -0.000000 24.043166 2.057277
LeftHand 2.545080 0.000000 4.530084
LeftHandThumb1 -26.253704 33.147579 0.000000
RightShoulder 15.935492 46.013104 -15.247122
RightArm 55.665730 9.276962 60.885594
RightForeArm 0.000000 -47.282273 13.077884
RightHand -5.689781 -0.000000 -4.331982
RightHandThumb1 -24.326973 -32.862282 -0.000000
LeftUpLeg -64.502734 14.924715 -6.974845
LeftLeg 100.284352 -0.000000 -0.000000
LeftFoot -43.229732 17.044365 -14.295114
LeftToeBase 12.042547 -0.000000 -0.000000
RightUpLeg -61.994379 -14.942980 7.086261
RightLeg 98.800690 -0.000000 -0.000000
RightFoot -50.555002 -22.465396 19.943179
RightToeBase 12.663147 -0.000000 -0.000000
371
root 5.615625 24.803963 -14.764691 8.609526 0.310579 1.289712
Spine 13.142266 -12.101623 -8.104556
Head -22.079332 14.527418 17.132457
LeftShoulder -15.769475 -14.620936 29.885084
LeftArm 81.164018 -13.115421 -39.585314
LeftForeArm -0.000000 23.796840 1.921577
LeftHand 2.416765 -0.000000 4.305939
LeftHandThumb1 -26.253704 33.147579 0.000000
RightShoulder 15.687832 45.904748 -15.566735
RightArm 56.098915 9.442754 60.475910
RightForeArm -0.000000 -47.065619 13.151330
RightHand -5.709715 -0.000000 -4.028390
RightHandThumb1 -24.326973 -32.862282 -0.000000
LeftUpLeg -65.599334 14.952737 -6.869554
LeftLeg 102.317156 -0.000000 -0.000000
LeftFoot -43.806876 16.554170 -14.569139
LeftToeBase 11.523822 -0.000000 -0.000000
RightUpLeg -63.354437 -14.849538 7.202555
RightLeg 101.176264 -0.000000 -0.000000
RightFoot -50.455652 -22.357964 19.948723
RightToeBase 12.048737 -0.000000 -0.000000
372
root 5.600192 24.345079 -14.787042 8.506565 0.205824 1.294728
Spine 13.409728 -12.039907 -8.221528
Head -22.149234 14.590164 17.253419
LeftShoulder -15.774396 -14.559465 30.116196
LeftArm 81.372597 -13.521087 -39.732089
LeftForeArm -0.000000 23.804144 1.727323
LeftHand 2.581419 -0.000000 4.139889
LeftHandThumb1 -26.253704 33.147579 0.000000
RightShoulder 15.557616 46.027286 -15.797014
RightArm 56.257046 9.576811 60.090269
RightForeArm 0.000000 -47.014777 13.199017
RightHand -5.558193 -0.000000 -3.781166
RightHandThumb1 -24.326973 -32.862282 -0.000000
LeftUpLeg -66.626952 15.004551 -6.754119
LeftLeg 104.284590 -0.000000 -0.000000
LeftFoot -44.276865 16.102237 -14.648194
LeftToeBase 10.731149 -0.000000 -0.000000
RightUpLeg -64.692795 -14.773785 7.344449
RightLeg 103.505109 -0.000000 -0.000000
RightFoot -50.342059 -22.148175 20.106619
RightToeBase 11.119426 -0.000000 -0.000000
373
root 5.588144 23.887213 -14.809021 8.372095 0.149309 1.330757
Spine 13.726371 -12.021683 -8.365069
Head -22.231305 14.662525 17.353636
LeftShoulder -15.829598 -14.523455 30.316608
LeftArm 81.615117 -13.846945 -39.803235
LeftForeArm 0.000000 23.656777 1.522112
LeftHand 2.531372 -0.000000 3.854265
LeftHandThumb1 -26.253704 33.147579 0.000000
RightShoulder 15.441783 46.180842 -15.983180
RightArm 56.388867 9.699717 59.711310
RightForeArm 0.000000 -46.813514 13.278721
RightHand -5.525427 -0.000000 -3.450546
RightHandThumb1 -24.326973 -32.862282 -0.000000
LeftUpLeg -67.605623 14.992063 -6.670930
LeftLeg 106.205860 -0.000000 -0.000000
LeftFoot -44.950959 15.541304 -14.930287
LeftToeBase 10.596128 -0.000000 -0.000000
RightUpLeg -65.985527 -14.799467 7.454062
RightLeg 105.776494 -0.000000 -0.000000
RightFoot -50.244768 -22.041602 20.065855
RightToeBase 10.481643 -0.000000 -0.000000
